<svg id="_лой_1" data-name="‘лой_1" xmlns="http://www.w3.org/2000/svg" viewBox="0 0 2815.91 1676.18">
  <defs>
    <style>
      .cls-1 {
        fill: #ebf3fa;
      }

      .cls-2 {
        fill: #cde0fb;
      }

      .cls-3 {
        fill: #dfebfd;
      }

      .cls-4 {
        fill: #6c447f;
      }

      .cls-5 {
        fill: #aec3ff;
      }

      .cls-6 {
        fill: #fff7f0;
      }

      .cls-7 {
        fill: #f9dec7;
      }

      .cls-8 {
        fill: #ffb27d;
      }

      .cls-9 {
        fill: #233862;
      }

      .cls-10 {
        fill: #2b478b;
      }

      .cls-11 {
        fill: #ed975d;
      }

      .cls-12 {
        fill: #95b3ef;
      }

      .cls-13 {
        fill: #ed7d2b;
      }

      .cls-14 {
        fill: #fff;
      }

      .cls-15 {
        fill: #1b3770;
      }

      .cls-16 {
        fill: #e8c2a3;
      }

      .cls-17 {
        fill: #f78248;
      }

      .cls-18 {
        fill: #699dee;
      }

      .cls-19 {
        fill: #4b87dd;
      }

      .cls-20 {
        fill: #f99746;
      }

      .cls-21 {
        fill: #f9ddbf;
      }

      .cls-22 {
        fill: #1f4075;
      }

      .cls-23 {
        fill: #ef7e29;
      }

      .cls-24 {
        fill: #ed985f;
      }

      .cls-25 {
        fill: #2c3a64;
      }

      .cls-26 {
        fill: #793878;
      }

      .cls-27 {
        fill: #593879;
      }

      .cls-28 {
        fill: #a6c7ed;
      }

      .cls-29 {
        fill: #e3f0ff;
      }

      .cls-30 {
        fill: #1c3d72;
      }

      .cls-31 {
        fill: #fca56b;
      }

      .cls-32 {
        fill: #163560;
      }

      .cls-33 {
        fill: #1f4d84;
      }

      .cls-34 {
        opacity: 0.5;
      }

      .cls-35 {
        fill: #b3cff9;
      }

      .cls-36 {
        fill: #2e3552;
      }

      .cls-37 {
        fill: #afcdfb;
      }
    </style>
  </defs>
  <g>
    <path class="cls-1" d="M372.25,1818.62s-297.42-83.85-161-467.8S607,1132.51,532.06,796.72C433.21,353.94,851.8,52.83,1312,175.47s336.86,259,877.67,121.67c659.3-167.35,714.91,528.91,562,760.18s417.4,264.62,181.84,761.3Z" transform="translate(-175.43 -147.92)"/>
    <g>
      <path class="cls-2" d="M2451.25,947.59s76.2-155.38,118.82-141.59S2451.25,947.59,2451.25,947.59Z" transform="translate(-175.43 -147.92)"/>
      <path class="cls-2" d="M2396.44,1017.88S2579,839,2649.93,871.58s-43.24,67.63-86.79,77.16S2396.44,1017.88,2396.44,1017.88Z" transform="translate(-175.43 -147.92)"/>
    </g>
    <path class="cls-2" d="M2853.92,1692.36c65.21-42.84,3.27-156.28,3.27-156.28s-152.12-40.95-162.92-63.82,136.89,9.61,136.89,9.61c-10.68-47.68-105.94-146.89-105.94-146.89s-143.67,55.34-148.5,30.51S2706.43,1323,2706.43,1323c-28.08-40.32-93.95-65-93.95-65-102.09-24.32-128.05,108-128.05,108s-50.2,18.11-118.61,5.86h0s-13.05-3.55-33.66-4.75l4,12.2c3.6-.08,7.12,0,10.55.2a.07.07,0,0,1,.06,0h.15c2.16.22,5.23.54,9,1h0c8.52,1.33,14.73,2.08,19.14,2.4h0c26.55,3.66,61.65,10,71.42,18.64a25.2,25.2,0,0,1,4.74-4.45l-4.74,4.45c-37.88,35.53-11.13,142.34,19.86,196.57s39.08,23.52,55.43-16.51-12.16-103.34-8.08-126.14,23.81,2.1,33.53,41.84-22.68,71.83-8.12,136.41,148,73.67,148,73.67c-27.59-38.84-29.15-124.19-15.22-132.05s50.07,107.42,60.41,123.84S2788.71,1735.2,2853.92,1692.36Z" transform="translate(-175.43 -147.92)"/>
    <g>
      <path class="cls-3" d="M794.45,1121.63s-96.12-196-149.87-178.58S794.45,1121.63,794.45,1121.63Z" transform="translate(-175.43 -147.92)"/>
      <path class="cls-3" d="M863.57,1210.3S633.33,984.62,543.86,1025.77s54.54,85.29,109.46,97.31S863.57,1210.3,863.57,1210.3Z" transform="translate(-175.43 -147.92)"/>
    </g>
    <path class="cls-2" d="M429.48,1339.86C430.66,1271.29,544,1264,544,1264s101.9,93.76,124,91-71.47-97.17-71.47-97.17c40.44-14.48,158.91,9.67,158.91,9.67s26.39,132.74,47.11,124.66-29.37-116.33-29.37-116.33c43.16,1.91,92.41,39.26,92.41,39.26,66,64.41-20.08,145.88-20.08,145.88s10.14,45.8,51.38,90.86h0s8.76,8,19.34,22.77l-10.94,2.76c-1.63-2.7-3.33-5.29-5.11-7.74l0,0a.76.76,0,0,1-.08-.11c-1.18-1.5-2.86-3.63-4.94-6.22h0c-5-5.7-8.47-10-10.78-13.09l0,0c-15.19-18-147.91,30.85-202.76,33.31s-35.83-18-13.78-48.94,82.48-39.51,97.5-53.26-12.74-16.7-46.84-5.25-42.7,50.61-97.51,70.13-124.26-75.32-124.26-75.32c41.81,2.25,106-36.69,105.25-50.74s-103.33,13.28-120.39,13.32S428.29,1408.43,429.48,1339.86Z" transform="translate(-175.43 -147.92)"/>
    <g>
      <path class="cls-4" d="M1582.19,1813.67H772.58a31.88,31.88,0,0,1-31.84-31.93V700.1a31.89,31.89,0,0,1,33-31.91L1614,706.94v1074.8A31.88,31.88,0,0,1,1582.19,1813.67Z" transform="translate(-175.43 -147.92)"/>
      <path class="cls-4" d="M1645.88,1813.67h809.6a31.89,31.89,0,0,0,31.85-31.93V700.1a31.9,31.9,0,0,0-33-31.91L1614,706.94v1074.8A31.89,31.89,0,0,0,1645.88,1813.67Z" transform="translate(-175.43 -147.92)"/>
      <path class="cls-5" d="M802,715.11l-26.25,21.33a16,16,0,0,0-5.87,12.44V1797.5a15.71,15.71,0,0,0,15.53,15.89H850.8a15.73,15.73,0,0,0,15.5-16.85Z" transform="translate(-175.43 -147.92)"/>
      <path class="cls-5" d="M2427.62,715.11l26.25,21.33a16,16,0,0,1,5.88,12.44V1797.5a15.71,15.71,0,0,1-15.53,15.89h-65.36a15.74,15.74,0,0,1-15.5-16.85Z" transform="translate(-175.43 -147.92)"/>
      <path class="cls-6" d="M1584.07,1813.67H822.33c-16.54,0-30-13.81-30-30.85V737.8c0-17.5,14.11-31.49,31.09-30.83l664.89,25.69C1558.51,735.37,1614,794.73,1614,867v915.8C1614,1799.86,1600.62,1813.67,1584.07,1813.67Z" transform="translate(-175.43 -147.92)"/>
      <path class="cls-6" d="M1641.53,1813.67h766.66c15.19,0,27.5-12.67,27.5-28.31V735.16c0-16-13-28.89-28.53-28.29L1725.6,733.21c-62.28,2.41-111.57,55.1-111.57,119.27v932.88C1614,1801,1626.34,1813.67,1641.53,1813.67Z" transform="translate(-175.43 -147.92)"/>
      <rect class="cls-7" x="1436.54" y="767.02" width="4.13" height="678.56"/>
    </g>
    <g>
      <g>
        <path class="cls-8" d="M2012.69,847.21a5.45,5.45,0,0,1,.94,5.85s0,0,0,0c-1.44,3.89-6.12,8.2-11.57,12.51-.69.56-1.31,1.06-1.85,1.52l-.42.37-.32.29c-5.07,4.61-3.18,5.69-12.32,15.07-10.41,10.68-17.53,10.82-19.55,9.83-1.7-.85,1.82-6.53,5.72-12.91.19-.31.37-.62.57-.93.52-.85,1-1.71,1.55-2.57,4.57-7.68,3.44-11.31,2.45-22.8-.81-9.34-14.15-52.24-14.15-52.24l19.83-3.27s5.73,34.13,12.26,39.42c3.5,2.82,7.43,2.89,10.8,5l.69.45A25.89,25.89,0,0,1,2012.69,847.21Z" transform="translate(-175.43 -147.92)"/>
        <path class="cls-9" d="M2012.69,847.21a5.45,5.45,0,0,1,.94,5.85s0,0,0,0c-1.75,3.88-6.32,8.18-11.58,12.47-.69.56-1.3,1.08-1.84,1.56l-.42.37-.32.29c-5.07,4.61-3.18,5.69-12.32,15.07-10.41,10.68-17.53,10.82-19.55,9.83-1.7-.85,1.82-6.53,5.72-12.91a44.05,44.05,0,0,0,18.52-13.45c6.28-7.9,10.51-18.07,14.79-24l.69.45A25.89,25.89,0,0,1,2012.69,847.21Z" transform="translate(-175.43 -147.92)"/>
        <path class="cls-8" d="M1853.05,833.71c-1.27,6.1-10,5-19.7,2.57s-7.43.4-21.27-1.23-18-6.83-18.42-8.89c-.37-1.83,6.48-2.43,13.84-3.23.92-.09,1.85-.2,2.78-.31,8.3-1,14.41-6.29,22-10.63,7.17-4.11,17.94-21,17.94-21l19,1.64s-10.08,15.08-14,21.64c-2.3,3.86-2.22,9-2,12.94A24.42,24.42,0,0,1,1853.05,833.71Z" transform="translate(-175.43 -147.92)"/>
        <path class="cls-9" d="M1833.35,836.28c-9.72-2.44-7.43.4-21.27-1.23s-18-6.83-18.42-8.89c-.37-1.83,6.48-2.43,13.84-3.23l.06.15a39.1,39.1,0,0,0,19.81,6.31c9.4.29,19.38-2.33,25.87-2.18a24.42,24.42,0,0,1-.19,6.5C1851.78,839.81,1843.07,838.73,1833.35,836.28Z" transform="translate(-175.43 -147.92)"/>
        <path class="cls-9" d="M1991.22,816.46s-1.32.86-3.3,1.95a43.55,43.55,0,0,1-8.66,3.77,34.8,34.8,0,0,1-8.91,1.16,33.74,33.74,0,0,1-3.42-.12l-22.76-62.6-4.11-11.31-4.38-12-1.52-4.19-7.41-20.38s18.11-46.45,36.58-24.31a44.8,44.8,0,0,1,6.33,11.44c1.35,3.29,2.63,7,3.85,11,.91,3,1.8,6.2,2.65,9.51,2.3,9,4.34,19,6.12,29C1988.22,782.69,1991.22,816.46,1991.22,816.46Z" transform="translate(-175.43 -147.92)"/>
        <path class="cls-10" d="M2113.53,717.9l-92.29,3.88c-20.22-4.18-37.28-14.88-48.88-20.62l-2.7-1.34c-4-2-6.68-3.3-7.8-3.54-7-1.46-10.63,10-16.58,24.05-1.22,2.87-2.52,5.83-4,8.83a45.06,45.06,0,0,1-5.63,8.1c-.49.59-1,1.19-1.52,1.81-20.43,23.86-73,68.28-73,68.28l-1.62,0c-3.21-.06-10.38-.35-13.81-1.67a21.12,21.12,0,0,1-4.48-2.32,10.13,10.13,0,0,1-2.13-1.92s62.92-123,95.5-156.53h0c.47-.49.93-1,1.4-1.39,3.55-3.48,6.71-5.78,9.34-6.6,11.1-3.5,82.9.4,82.9.4l2.29-3.73,3.84-.27.66,0,3.19-.24h0l4.42-.31,6.56-.46L2067,631l2.85-.2,32.81-2.34s1.49,3.38,3.52,9c.79,2.19,1.65,4.7,2.54,7.49C2114.54,663.22,2122.12,696.17,2113.53,717.9Z" transform="translate(-175.43 -147.92)"/>
        <path class="cls-9" d="M2134.52,506.15c-16.4-14-28.09-17.46-29.72-39.62-.88-12-17-51.81-44.34-48.33a41.86,41.86,0,0,1-6.89.4,25.51,25.51,0,0,0-13.88,3.49c-13.15,7.69-37.37,78.89-21,103.9a18.15,18.15,0,0,0,13,8.38l2.1,1.18h0c2.94,1.65,6.17,3.46,9.58,5.4,19.3,10.88,44.57,25.27,57.52,32.54h0l2.21,1.25,3.77,2.09c1.51.83,2.4,1.29,2.47,1.29a56,56,0,0,0,8,2.26c6.51,1.35,15.63,2.11,22-2a34.87,34.87,0,0,0,7-6C2159.4,557.62,2162.86,530.33,2134.52,506.15Z" transform="translate(-175.43 -147.92)"/>
        <path class="cls-8" d="M2053.26,522.49c-.12.07,12.59,4.51,21.13.8,8-3.48,14.19-16.62,14.07-16.63-3.64-.19-7.62-3.41-10.55-24.33l-1.56.54-26.15,9.21s1.83,8.38,3,16.36C2054.18,515.14,2054.69,521.56,2053.26,522.49Z" transform="translate(-175.43 -147.92)"/>
        <path class="cls-11" d="M2050.2,492.08s1.11,5.87,2.66,14.27c15-2.59,21.33-15.39,23.49-23.48Z" transform="translate(-175.43 -147.92)"/>
        <path class="cls-8" d="M2046.26,500.36s35.72-4.54,32.55-26.75-.69-37.74-23.63-35.78-26.16,11.06-26.91,18.73S2036.88,501,2046.26,500.36Z" transform="translate(-175.43 -147.92)"/>
        <path class="cls-9" d="M2029.66,444.41s22.71,19.85,38.24,21.55,21.45-3.25,21.45-3.25a60.75,60.75,0,0,1-14.53-20,10.93,10.93,0,0,0-9-6.5C2054.76,435.18,2033.73,434.59,2029.66,444.41Z" transform="translate(-175.43 -147.92)"/>
        <path class="cls-9" d="M2044,442.75s-7.7,7.33-10.15,12.8c-2.36,5.27-3.14,17.92-1.33,23,0,0-11.75-23.24-4.92-34.45C2034.79,432.18,2044,442.75,2044,442.75Z" transform="translate(-175.43 -147.92)"/>
        <path class="cls-5" d="M2022.83,574.86c.57,72.26-.11,57.16,7.75,64.07,1.89,1.67,7.24,2.69,14.28,3.2,22.14,1.63,61.12-1.75,62.63-5.83,5.21-14.13,1.63-18.56,6.05-40.22.46-2.3,1-4.8,1.69-7.51,3.66-14.87,7.16-19.92-5.29-43.94-11.28-21.76-23-39.44-24.11-38.81-30.3,17.7-32.63,2.63-32.63,2.63S2022.55,539.61,2022.83,574.86Z" transform="translate(-175.43 -147.92)"/>
        <path class="cls-10" d="M1991.22,816.46s-1.32.86-3.3,1.95a43.55,43.55,0,0,1-8.66,3.77,34.8,34.8,0,0,1-8.91,1.16,33.74,33.74,0,0,1-3.42-.12l-22.76-62.6,6.67-11.31,17.07-29,5.6-9.51c.91,3,1.8,6.2,2.65,9.51,2.3,9,4.34,19,6.12,29C1988.22,782.69,1991.22,816.46,1991.22,816.46Z" transform="translate(-175.43 -147.92)"/>
        <path class="cls-5" d="M2053.2,508.44s-31.09,5.05-34.83,18.39l-25.75,91.78s15.76,2.95,23.11-4.29,25.85-67.48,25.85-67.48Z" transform="translate(-175.43 -147.92)"/>
        <path class="cls-12" d="M2044.86,642.13c22.14,1.63,61.12-1.75,62.63-5.83,5.21-14.13,1.63-18.56,6.05-40.22l-10.48-30.17s1.53,33.53-8.41,42.27-40.58,16.73-45.44,24.06A26.92,26.92,0,0,0,2044.86,642.13Z" transform="translate(-175.43 -147.92)"/>
        <path class="cls-8" d="M2070.34,628.22s-21.82-5-25.36-3.11-12.21,8.92-13.31,11.37,7.87-1.81,10.78-2.57c1.88-.49,6.82,1.27,9.27,2.1,10.29,3.51,16.62,1.79,16.62,1.79Z" transform="translate(-175.43 -147.92)"/>
        <path class="cls-5" d="M2085.85,505.8s29.33,2,39.39,16.26c14.16,20.05,41.94,105.26,25.6,116.49-18.41,12.64-83.37,2.75-83.37,2.75s-2.09-10.13,1-15,52-12.43,54.31-14.68-27.92-44.23-27.87-51S2085.85,505.8,2085.85,505.8Z" transform="translate(-175.43 -147.92)"/>
        <path class="cls-8" d="M2043.88,631.19s-4.62,5.87-6.13,6.57a4.54,4.54,0,0,1-2.48.51l3.13-5.53Z" transform="translate(-175.43 -147.92)"/>
        <path class="cls-8" d="M2045,625.11l-13.36,6.37a2.38,2.38,0,0,0,2.2.87,31.5,31.5,0,0,0,5.78-1.54Z" transform="translate(-175.43 -147.92)"/>
      </g>
      <g>
        <g>
          <polygon class="cls-4" points="1865.17 496.07 1759.84 495.33 1728.71 416.31 1833.88 417.06 1865.17 496.07"/>
          <polygon class="cls-13" points="1758.63 492.25 1897.72 493.23 1897.69 496.3 1759.84 495.33 1758.63 492.25"/>
        </g>
        <path class="cls-14" d="M1962.13,604.05c-.77-2.78.85-5,3.62-5a7.19,7.19,0,0,1,6.42,5.06c.77,2.77-.85,5-3.62,5A7.2,7.2,0,0,1,1962.13,604.05Z" transform="translate(-175.43 -147.92)"/>
      </g>
    </g>
    <g>
      <g>
        <rect class="cls-10" x="830.12" y="1668.4" width="703.87" height="144.58" rx="70.81" transform="translate(2188.69 3333.46) rotate(-180)"/>
        <path class="cls-7" d="M1219.58,1721.46l-.5,31.59a50.61,50.61,0,0,0,49.8,51.42l373.68,6,.11-6.29a64.41,64.41,0,0,1-34.72-58.21l.18-11.12a64.4,64.4,0,0,1,36.55-57.07v-.13l-373.69-6A50.63,50.63,0,0,0,1219.58,1721.46Z" transform="translate(-175.43 -147.92)"/>
        <path class="cls-15" d="M1652.35,1813H1258.67c-25.39,0-45.28-31.78-45.28-72.34s19.89-72.33,45.28-72.33h393.68a5.92,5.92,0,0,1,0,11.84H1258.67c-18.13,0-33.45,27.7-33.45,60.49s15.32,60.5,33.45,60.5h393.68a5.92,5.92,0,1,1,0,11.84Z" transform="translate(-175.43 -147.92)"/>
        <rect class="cls-16" x="1100.81" y="1558.9" width="338.55" height="0.93"/>
        <rect class="cls-16" x="1306.03" y="1572.1" width="128.52" height="0.85"/>
        <rect class="cls-16" x="1210.35" y="1617" width="224.2" height="0.85"/>
      </g>
      <path class="cls-17" d="M1318.28,1707.29s17.37,7.27,19.44,31.81,0,37.61,0,37.61l-21-10-21.17,10v-38.36s-.78-31.06-29.67-31.06Z" transform="translate(-175.43 -147.92)"/>
    </g>
    <g>
      <rect class="cls-18" x="809.51" y="1559.58" width="525.3" height="108.83" rx="46.35" transform="translate(1968.88 3080.06) rotate(180)"/>
      <path class="cls-7" d="M1100.16,1599.46l-.38,23.75a37.94,37.94,0,0,0,37.17,38.65l278.88,4.48.08-4.73a48.45,48.45,0,0,1-25.91-43.75l.13-8.36a48.45,48.45,0,0,1,27.28-42.9v-.09L1138.54,1562A37.91,37.91,0,0,0,1100.16,1599.46Z" transform="translate(-175.43 -147.92)"/>
      <path class="cls-19" d="M1423.13,1668.25h-293.8c-18.95,0-33.8-23.88-33.8-54.37s14.85-54.38,33.8-54.38h293.8a4.45,4.45,0,0,1,0,8.9h-293.8c-13.53,0-25,20.83-25,45.48s11.43,45.47,25,45.47h293.8a4.45,4.45,0,0,1,0,8.9Z" transform="translate(-175.43 -147.92)"/>
      <rect class="cls-16" x="1007.53" y="1440.56" width="212.14" height="0.64"/>
      <rect class="cls-16" x="1120.17" y="1450.46" width="95.92" height="0.64"/>
      <rect class="cls-16" x="1048.76" y="1484.21" width="167.32" height="0.64"/>
    </g>
    <g>
      <g>
        <path class="cls-8" d="M2338.5,1469.35s5.41,16.64,4.94,20.45-3.86,16.82-6.28,20.15-3.62-13.57-5.54-16.11-.39,6.36-1.74,7.19-4.18-6.55-5.39-9.15,3-12.19,3-18.88S2338.5,1469.35,2338.5,1469.35Z" transform="translate(-175.43 -147.92)"/>
        <path class="cls-9" d="M2211.38,1337.11c-1.5-19.09,19.24-32.17,35.61-22.24.34.2.67.41,1,.62,24.51,15.78,77.4,89.4,81,96.77s14.38,66,14.38,66-13.27,4.86-19.48-.18c0,0-21.53-55.65-24.72-58.43s-86.12-49.32-86.83-66.76C2212.19,1348.32,2211.82,1342.78,2211.38,1337.11Z" transform="translate(-175.43 -147.92)"/>
      </g>
      <g>
        <rect class="cls-20" x="2042.61" y="1279.66" width="21.93" height="110.31" transform="translate(1292.77 3565.17) rotate(-109.2)"/>
        <polygon class="cls-21" points="1801.85 1213.45 1829.67 1215.38 1822.46 1194.67 1801.85 1213.45"/>
        <path class="cls-21" d="M2100.75,1308.15h21.93a0,0,0,0,1,0,0v5.55a7.27,7.27,0,0,1-7.27,7.27h-6.93a7.72,7.72,0,0,1-7.72-7.72v-5.1A0,0,0,0,1,2100.75,1308.15Z" transform="translate(1389.14 3593.18) rotate(-109.2)"/>
      </g>
      <g>
        <path class="cls-22" d="M2359.39,1768s9.88,9,8,15.43-10.85,10.68-12.05,18.51-6,12.1-10.37,12.1h-20.68s-3.2-5.51,4.52-7.17,10.62-10.86,10.14-19.41a149.47,149.47,0,0,1,.72-19.94l16.39-3.79Z" transform="translate(-175.43 -147.92)"/>
        <path class="cls-22" d="M2238.14,1791.36s1.77,20.52-2.57,22.66l-55.53-.12s0-6.4,8.92-7.83,24.59-6.64,27.24-18.27S2238.14,1791.36,2238.14,1791.36Z" transform="translate(-175.43 -147.92)"/>
        <path class="cls-20" d="M2191.26,1501.41s2.93,36,6.37,79.23c4.68,58.75,10.3,130.91,10.86,144.59,1,23.74,4.82,61.71,4.82,61.71s9.16,9,27.48,5.22c0,0,16.33-54.21,21-111.57l.21-2.83c4.34-58.39,11.09-181.34,11.09-181.34Z" transform="translate(-175.43 -147.92)"/>
        <path class="cls-23" d="M2191.26,1501.41s2.93,36,6.37,79.23l64.16,99.95.21-2.83c4.34-58.39,11.09-181.34,11.09-181.34Z" transform="translate(-175.43 -147.92)"/>
        <path class="cls-20" d="M2204.63,1505.68s52.79,130.3,87.5,191.54,45.56,78.33,45.56,78.33,19.89-7.84,21.7-13.18c0,0-13.28-118.22-36.52-147-13.14-16.28-28.57-65.15-29.29-82.24s-4.7-50.91-4.7-50.91Z" transform="translate(-175.43 -147.92)"/>
      </g>
      <path class="cls-8" d="M2250.15,1310.21s-35.37,17.94-56.08,12a48.51,48.51,0,0,1,13.71-11.43c-.79-4.12-1.42-7.69-1.8-10.73a97.63,97.63,0,0,1-1.08-11l13.56-11.11,12.86-10.63C2230.87,1296.48,2250.15,1310.21,2250.15,1310.21Z" transform="translate(-175.43 -147.92)"/>
      <path class="cls-10" d="M2285.28,1492.49c-14.28,8.65-27.8,15.14-43.62,18.79-18.66,4.43-41.6,3.12-49.27,4.29a3.2,3.2,0,0,1-2.24-.56c-.6-.31-4-23.08-7.38-51.81-.15-1.15-.31-2.32-.37-3.49l-.05-.39c-1.32-11.23-2.48-23-3.48-34.86-.82-9.2-1.49-18.3-2-26.85-.59-10.69-.83-20.52-.59-28.6.11-3.69.32-7,.65-9.9,2-16.78,10-28.77,17.57-37.7l6.25-7.12a34.29,34.29,0,0,0,21.64-5.52c7.64-5,15.91-11,17.47-10.08,11.71,6.4,21.2,23.55,28,45.47a250.63,250.63,0,0,1,8.82,42.09c.61,4.71,1.14,9.53,1.54,14.34.08.89.14,1.78.21,2.65.92,13.14,2.42,25.46,4.08,36.45,2.24,14.83,4.79,27.26,6.59,36,.9,4.45,1.59,7.89,2,10.36C2291.51,1488.21,2287.2,1491.29,2285.28,1492.49Z" transform="translate(-175.43 -147.92)"/>
      <path class="cls-24" d="M2231.78,1278.44s-8.7,16.63-25.8,21.57a97.63,97.63,0,0,1-1.08-11l13.56-11.11Z" transform="translate(-175.43 -147.92)"/>
      <path class="cls-8" d="M2198.6,1288.69s34.18,4.89,37-16.11,9.07-34.52-12.63-38.54-27,3.46-29.68,10.25S2189.79,1286.87,2198.6,1288.69Z" transform="translate(-175.43 -147.92)"/>
      <path class="cls-25" d="M2247.13,1231.05c.3-.36,1-.66,2.59-.78a6.34,6.34,0,0,0-3-.77c-.38-2.2-1.63-6.09-5.45-7a4.76,4.76,0,0,1,2.38,3.39c-4.49-4.43-14-7.54-40.05-5-34.35,3.4-22.58,25.21-18.07,27.74s15.58-4.88,23.89-4.39,10.13,12.46,13,14,1.68-1.3,5.45-3.1,4.27,4.51,3.25,8.64,4.32,9.43,4.32,9.43l5.18-5.8c5.17-5.8,9.68-30,7.17-35.12Z" transform="translate(-175.43 -147.92)"/>
      <path class="cls-9" d="M2236.27,1370.88s-28.81,21.93-59.36,26.73c-.59-10.69-.83-20.52-.59-28.6Z" transform="translate(-175.43 -147.92)"/>
      <g>
        <path class="cls-8" d="M2059.3,1342.59c-.45-.49-6.33-20.13-16.49-18.7-6.63.93-17.46,4.77-14.59,13.51,1.14,3.43,21.34,15.26,21.34,15.26Z" transform="translate(-175.43 -147.92)"/>
        <path class="cls-10" d="M2239.84,1328.52c16.43,9.83,15.1,34.31-2.48,41.91l-1.08.45c-27.06,10.86-107.56,12.06-125.83,10.06-19.81-2.17-62.18-26.51-62.18-26.51s3.73-13.64,11.43-15.78c0,0,44.76,12.68,62,13.67,10.88.62,90.07-41.67,104.71-32.15C2230.23,1322.69,2235,1325.6,2239.84,1328.52Z" transform="translate(-175.43 -147.92)"/>
      </g>
    </g>
    <g>
      <g>
        <polygon class="cls-7" points="1670.76 1569.61 1487.62 1578.61 1487.62 1395.47 1670.76 1386.47 1670.76 1569.61"/>
        <g>
          <polygon class="cls-6" points="1501.38 1557.01 1555.47 1456.83 1595.25 1509.13 1615.11 1486.44 1657.2 1549.36 1501.38 1557.01"/>
          <path class="cls-6" d="M1756.68,1589.49a14.86,14.86,0,0,1,14-14.69,13.2,13.2,0,0,1,14,13.31,14.87,14.87,0,0,1-14,14.69A13.2,13.2,0,0,1,1756.68,1589.49Z" transform="translate(-175.43 -147.92)"/>
        </g>
      </g>
      <g>
        <polygon class="cls-7" points="2214.98 869.34 1951.14 882.31 1951.14 618.47 2214.98 605.5 2214.98 869.34"/>
        <g>
          <polygon class="cls-6" points="1970.95 851.2 2048.89 706.86 2106.19 782.21 2134.8 749.52 2195.44 840.16 1970.95 851.2"/>
          <path class="cls-6" d="M2261.45,832.79a21.42,21.42,0,0,1,20.17-21.16,19,19,0,0,1,20.17,19.18A21.41,21.41,0,0,1,2281.62,852,19,19,0,0,1,2261.45,832.79Z" transform="translate(-175.43 -147.92)"/>
        </g>
      </g>
      <g>
        <polygon class="cls-4" points="1745.62 1068.41 1487.62 1081.09 1487.62 1066.06 1745.62 1053.38 1745.62 1068.41"/>
        <polygon class="cls-7" points="1625.94 1104.71 1487.62 1111.51 1487.62 1103.99 1625.94 1097.19 1625.94 1104.71"/>
        <polygon class="cls-7" points="1585.4 1131.7 1487.62 1136.51 1487.62 1128.99 1585.4 1124.19 1585.4 1131.7"/>
        <polygon class="cls-7" points="1702.15 1125.96 1604.38 1130.77 1604.38 1123.25 1702.15 1118.45 1702.15 1125.96"/>
        <polygon class="cls-7" points="1835.22 1119.42 1716.09 1125.28 1716.09 1117.76 1835.22 1111.91 1835.22 1119.42"/>
        <polygon class="cls-7" points="1572.51 1156.82 1487.62 1160.99 1487.62 1153.48 1572.51 1149.31 1572.51 1156.82"/>
        <polygon class="cls-7" points="1673.87 1151.84 1588.99 1156.01 1588.99 1148.5 1673.87 1144.33 1673.87 1151.84"/>
        <polygon class="cls-7" points="1789.39 1146.16 1685.96 1151.24 1685.96 1143.73 1789.39 1138.65 1789.39 1146.16"/>
      </g>
      <g>
        <polygon class="cls-4" points="1745.62 898.82 1487.62 911.5 1487.62 896.48 1745.62 883.8 1745.62 898.82"/>
        <polygon class="cls-7" points="1625.94 935.13 1487.62 941.92 1487.62 934.41 1625.94 927.61 1625.94 935.13"/>
        <polygon class="cls-7" points="1791.11 927.01 1652.79 933.8 1652.79 926.29 1791.11 919.49 1791.11 927.01"/>
        <polygon class="cls-7" points="1585.4 962.12 1487.62 966.92 1487.62 959.41 1585.4 954.6 1585.4 962.12"/>
        <polygon class="cls-7" points="1702.15 956.38 1604.38 961.18 1604.38 953.67 1702.15 948.87 1702.15 956.38"/>
        <polygon class="cls-7" points="1835.22 949.84 1716.09 955.69 1716.09 948.18 1835.22 942.33 1835.22 949.84"/>
        <polygon class="cls-7" points="1572.51 987.24 1487.62 991.41 1487.62 983.9 1572.51 979.72 1572.51 987.24"/>
        <polygon class="cls-7" points="1673.87 982.26 1588.99 986.43 1588.99 978.91 1673.87 974.74 1673.87 982.26"/>
        <polygon class="cls-7" points="1789.39 976.58 1685.96 981.66 1685.96 974.15 1789.39 969.07 1789.39 976.58"/>
      </g>
      <g>
        <polygon class="cls-20" points="2131.15 919.74 1949.66 928.66 1949.66 918.09 2131.15 909.17 2131.15 919.74"/>
        <polygon class="cls-7" points="2046.95 945.27 1949.66 950.05 1949.66 944.77 2046.95 939.99 2046.95 945.27"/>
        <polygon class="cls-7" points="2163.14 939.56 2065.84 944.35 2065.84 939.06 2163.14 934.28 2163.14 939.56"/>
        <polygon class="cls-7" points="2018.44 964.26 1949.66 967.64 1949.66 962.36 2018.44 958.98 2018.44 964.26"/>
        <polygon class="cls-7" points="2100.57 960.23 2031.79 963.61 2031.79 958.32 2100.57 954.94 2100.57 960.23"/>
        <polygon class="cls-7" points="2194.18 955.63 2110.37 959.74 2110.37 954.46 2194.18 950.34 2194.18 955.63"/>
        <polygon class="cls-7" points="2009.37 981.93 1949.66 984.87 1949.66 979.58 2009.37 976.65 2009.37 981.93"/>
        <polygon class="cls-7" points="2080.67 978.43 2020.96 981.36 2020.96 976.08 2080.67 973.14 2080.67 978.43"/>
        <polygon class="cls-7" points="2161.94 974.43 2089.18 978.01 2089.18 972.73 2161.94 969.15 2161.94 974.43"/>
      </g>
      <g>
        <polygon class="cls-4" points="1745.62 1245.31 1487.62 1257.99 1487.62 1242.96 1745.62 1230.28 1745.62 1245.31"/>
        <polygon class="cls-7" points="1625.94 1281.61 1487.62 1288.41 1487.62 1280.89 1625.94 1274.09 1625.94 1281.61"/>
        <polygon class="cls-7" points="1791.11 1273.49 1652.79 1280.29 1652.79 1272.78 1791.11 1265.98 1791.11 1273.49"/>
        <polygon class="cls-7" points="1585.4 1308.6 1487.62 1313.41 1487.62 1305.89 1585.4 1301.09 1585.4 1308.6"/>
        <polygon class="cls-7" points="1702.15 1302.86 1604.38 1307.67 1604.38 1300.15 1702.15 1295.35 1702.15 1302.86"/>
        <polygon class="cls-7" points="1835.22 1296.32 1716.09 1302.18 1716.09 1294.66 1835.22 1288.81 1835.22 1296.32"/>
        <polygon class="cls-7" points="1572.51 1333.72 1487.62 1337.89 1487.62 1330.38 1572.51 1326.21 1572.51 1333.72"/>
        <polygon class="cls-7" points="1673.87 1328.74 1588.99 1332.91 1588.99 1325.4 1673.87 1321.23 1673.87 1328.74"/>
        <polygon class="cls-7" points="1789.39 1323.06 1685.96 1328.15 1685.96 1320.63 1789.39 1315.55 1789.39 1323.06"/>
      </g>
      <g>
        <polygon class="cls-4" points="1917.27 1480.95 1717.99 1490.75 1717.99 1475.72 1917.27 1465.93 1917.27 1480.95"/>
        <polygon class="cls-7" points="1824.83 1515.92 1717.99 1521.17 1717.99 1513.65 1824.83 1508.4 1824.83 1515.92"/>
        <polygon class="cls-7" points="1952.4 1509.65 1845.57 1514.9 1845.57 1507.38 1952.4 1502.13 1952.4 1509.65"/>
        <polygon class="cls-7" points="1793.51 1542.46 1717.99 1546.17 1717.99 1538.65 1793.51 1534.94 1793.51 1542.46"/>
        <polygon class="cls-7" points="1883.7 1538.02 1808.18 1541.74 1808.18 1534.22 1883.7 1530.51 1883.7 1538.02"/>
        <polygon class="cls-7" points="1986.48 1532.97 1894.46 1537.5 1894.46 1529.98 1986.48 1525.46 1986.48 1532.97"/>
        <polygon class="cls-7" points="1783.56 1567.43 1717.99 1570.66 1717.99 1563.14 1783.56 1559.92 1783.56 1567.43"/>
        <polygon class="cls-7" points="1861.85 1563.59 1796.29 1566.81 1796.29 1559.29 1861.85 1556.07 1861.85 1563.59"/>
        <polygon class="cls-7" points="1951.08 1559.2 1871.19 1563.13 1871.19 1555.61 1951.08 1551.69 1951.08 1559.2"/>
      </g>
    </g>
    <g>
      <g>
        <polygon class="cls-7" points="1344.03 959.55 1056.53 949.11 1056.53 661.6 1344.03 672.04 1344.03 959.55"/>
        <g>
          <polygon class="cls-6" points="1078.12 917.05 1163.05 767.02 1225.49 854.46 1256.67 821.51 1322.74 925.93 1078.12 917.05"/>
          <path class="cls-6" d="M1378.94,894.44a21,21,0,0,1,22-21.18,23,23,0,0,1,22,22.78,21,21,0,0,1-22,21.18A23,23,0,0,1,1378.94,894.44Z" transform="translate(-175.43 -147.92)"/>
        </g>
      </g>
      <g>
        <polygon class="cls-20" points="1309.68 1072.92 1051.69 1063.56 1051.69 1048.53 1309.68 1057.89 1309.68 1072.92"/>
        <polygon class="cls-7" points="1190 1099 1051.69 1093.98 1051.69 1086.46 1190 1091.48 1190 1099"/>
        <polygon class="cls-7" points="1149.46 1122.53 1051.69 1118.98 1051.69 1111.46 1149.46 1115.01 1149.46 1122.53"/>
        <polygon class="cls-7" points="1266.22 1126.77 1168.44 1123.21 1168.44 1115.7 1266.22 1119.25 1266.22 1126.77"/>
        <polygon class="cls-7" points="1399.29 1131.6 1280.15 1127.27 1280.15 1119.76 1399.29 1124.08 1399.29 1131.6"/>
        <polygon class="cls-7" points="1136.57 1146.55 1051.69 1143.46 1051.69 1135.95 1136.57 1139.03 1136.57 1146.55"/>
        <polygon class="cls-7" points="1237.93 1150.22 1153.05 1147.14 1153.05 1139.63 1237.93 1142.71 1237.93 1150.22"/>
        <polygon class="cls-7" points="1353.46 1154.42 1250.03 1150.66 1250.03 1143.15 1353.46 1146.91 1353.46 1154.42"/>
      </g>
      <g>
        <polygon class="cls-20" points="1309.68 1249.83 1051.69 1240.46 1051.69 1225.43 1309.68 1234.8 1309.68 1249.83"/>
        <polygon class="cls-7" points="1190 1275.9 1051.69 1270.88 1051.69 1263.36 1190 1268.38 1190 1275.9"/>
        <polygon class="cls-7" points="1355.17 1281.89 1216.86 1276.87 1216.86 1269.36 1355.17 1274.38 1355.17 1281.89"/>
        <polygon class="cls-7" points="1149.46 1299.43 1051.69 1295.88 1051.69 1288.36 1149.46 1291.91 1149.46 1299.43"/>
        <polygon class="cls-7" points="1266.22 1303.67 1168.44 1300.12 1168.44 1292.6 1266.22 1296.15 1266.22 1303.67"/>
        <polygon class="cls-7" points="1399.29 1308.5 1280.15 1304.17 1280.15 1296.66 1399.29 1300.98 1399.29 1308.5"/>
        <polygon class="cls-7" points="1136.57 1323.45 1051.69 1320.37 1051.69 1312.85 1136.57 1315.93 1136.57 1323.45"/>
        <polygon class="cls-7" points="1237.93 1327.13 1153.05 1324.05 1153.05 1316.53 1237.93 1319.61 1237.93 1327.13"/>
        <polygon class="cls-7" points="1353.46 1331.32 1250.03 1327.57 1250.03 1320.05 1353.46 1323.81 1353.46 1331.32"/>
      </g>
      <g>
        <polygon class="cls-20" points="943.1 633.76 685.1 624.39 685.1 609.36 943.1 618.73 943.1 633.76"/>
        <polygon class="cls-7" points="823.42 659.83 685.1 654.81 685.1 647.3 823.42 652.32 823.42 659.83"/>
        <polygon class="cls-7" points="988.58 665.83 850.27 660.81 850.27 653.29 988.58 658.31 988.58 665.83"/>
        <polygon class="cls-7" points="782.88 683.36 685.1 679.81 685.1 672.3 782.88 675.85 782.88 683.36"/>
        <polygon class="cls-7" points="899.63 687.6 801.86 684.05 801.86 676.53 899.63 680.09 899.63 687.6"/>
        <polygon class="cls-7" points="1032.7 692.43 913.57 688.1 913.57 680.59 1032.7 684.92 1032.7 692.43"/>
        <polygon class="cls-7" points="769.99 707.38 685.1 704.3 685.1 696.78 769.99 699.87 769.99 707.38"/>
        <polygon class="cls-7" points="871.35 711.06 786.47 707.98 786.47 700.46 871.35 703.55 871.35 711.06"/>
        <polygon class="cls-7" points="986.87 715.25 883.44 711.5 883.44 703.98 986.87 707.74 986.87 715.25"/>
      </g>
    </g>
    <g>
      <path class="cls-4" d="M469.59,1780a32.55,32.55,0,0,0,.25,4.09,33.52,33.52,0,0,0,33.3,29.46H975a33.56,33.56,0,1,0,0-67.11H503.14A33.55,33.55,0,0,0,469.59,1780Z" transform="translate(-175.43 -147.92)"/>
      <path class="cls-4" d="M505.58,1740.33H667.37a5.17,5.17,0,0,0,5.15-5.15h0a5.17,5.17,0,0,0-5.15-5.15H505.58a5.17,5.17,0,0,0-5.15,5.15h0A5.17,5.17,0,0,0,505.58,1740.33Z" transform="translate(-175.43 -147.92)"/>
      <rect class="cls-26" x="514.52" y="1740.33" width="17.54" height="6.07" transform="translate(871.14 3338.81) rotate(180)"/>
      <path class="cls-27" d="M473.66,1796a33.58,33.58,0,0,0,29.48,17.5h100V1796Z" transform="translate(-175.43 -147.92)"/>
      <path class="cls-26" d="M1071,1770.13v19.66a23.72,23.72,0,0,1-23.72,23.72H555.78a23.72,23.72,0,0,1-22.9-17.5,24.06,24.06,0,0,1-.82-6.22v-19.66a23.72,23.72,0,0,1,23.72-23.73h491.54A23.72,23.72,0,0,1,1071,1770.13Z" transform="translate(-175.43 -147.92)"/>
      <path class="cls-27" d="M1070.21,1802.42c-2.72,6.39-11.94,11.09-22.89,11.09H555.78c-10.95,0-20.17-4.7-22.9-11.09Z" transform="translate(-175.43 -147.92)"/>
      <g>
        <path class="cls-2" d="M1022.22,1780.08c0,10.42,3.79,19.74,9.76,25.91.14.13.27.27.4.41a23.81,23.81,0,0,0,16.84,7.35c10,0,34.62-15,49.9-25,7.62-5,12.91-8.69,12.91-8.69s-5.29-3.72-12.91-8.69c-15.28-10-39.95-25-49.9-25a22.2,22.2,0,0,0-8.26,1.6,27,27,0,0,0-11.38,9,37,37,0,0,0-6.83,16.42,1.66,1.66,0,0,0,0,.22A41.24,41.24,0,0,0,1022.22,1780.08Z" transform="translate(-175.43 -147.92)"/>
        <path class="cls-28" d="M1022.22,1780.08c0,10.42,3.79,19.74,9.76,25.91l75.66-26-84.92-6.34A41.24,41.24,0,0,0,1022.22,1780.08Z" transform="translate(-175.43 -147.92)"/>
        <path class="cls-29" d="M1029.58,1757l75.48,20.61L1041,1748A27,27,0,0,0,1029.58,1757Z" transform="translate(-175.43 -147.92)"/>
        <path class="cls-27" d="M1094.2,1780.08c0,4,2,7.42,4.92,8.69,7.62-5,12.91-8.69,12.91-8.69s-5.29-3.72-12.91-8.69C1096.25,1772.65,1094.2,1776.06,1094.2,1780.08Z" transform="translate(-175.43 -147.92)"/>
      </g>
    </g>
    <g>
      <g>
        <path class="cls-9" d="M875,1815.73h0a8.72,8.72,0,0,0,7.92-5.5l203.37-624.82c1-3.06-.93-5.56-4.31-5.58h0a8.7,8.7,0,0,0-7.91,5.5L870.69,1810.16C869.7,1813.21,871.63,1815.71,875,1815.73Z" transform="translate(-175.43 -147.92)"/>
        <path class="cls-9" d="M711.09,1814.77h0a8.7,8.7,0,0,0,7.92-5.5l203.37-624.82c1-3.06-.93-5.55-4.31-5.57h0a8.69,8.69,0,0,0-7.91,5.5L706.78,1809.2C705.79,1812.25,707.72,1814.75,711.09,1814.77Z" transform="translate(-175.43 -147.92)"/>
        <path class="cls-9" d="M887.58,1271.51l164.59,1a8.22,8.22,0,0,0,7.47-5.19h0c.94-2.87-.89-5.24-4.07-5.26l-164.59-1a8.24,8.24,0,0,0-7.47,5.19h0C882.57,1269.13,884.4,1271.49,887.58,1271.51Z" transform="translate(-175.43 -147.92)"/>
        <path class="cls-9" d="M852.07,1380.6l164.59,1a8.21,8.21,0,0,0,7.47-5.19h0c.94-2.87-.89-5.24-4.07-5.26l-164.59-1a8.25,8.25,0,0,0-7.47,5.19h0C847.06,1378.22,848.9,1380.58,852.07,1380.6Z" transform="translate(-175.43 -147.92)"/>
        <path class="cls-9" d="M817.87,1485.67l164.59,1a8.23,8.23,0,0,0,7.47-5.19h0c.94-2.87-.89-5.24-4.06-5.26l-164.6-1a8.25,8.25,0,0,0-7.47,5.19h0C812.87,1483.29,814.7,1485.65,817.87,1485.67Z" transform="translate(-175.43 -147.92)"/>
        <path class="cls-9" d="M779.37,1604l164.59,1a8.22,8.22,0,0,0,7.47-5.2h0c.94-2.87-.89-5.24-4.07-5.26l-164.59-1a8.26,8.26,0,0,0-7.47,5.2h0C774.37,1601.57,776.2,1603.94,779.37,1604Z" transform="translate(-175.43 -147.92)"/>
        <path class="cls-9" d="M739.07,1727.76l164.59,1a8.25,8.25,0,0,0,7.48-5.19h0c.93-2.88-.9-5.24-4.07-5.26l-164.6-1a8.23,8.23,0,0,0-7.47,5.19h0C734.07,1725.37,735.9,1727.74,739.07,1727.76Z" transform="translate(-175.43 -147.92)"/>
      </g>
      <g>
        <path class="cls-8" d="M1043.49,1043.93s1.94-4.38,3.2-6.45,6.65-8.15,7.57-6.77,4.58,10.63,2.63,13.22.13,7.1-9.56,9.83Z" transform="translate(-175.43 -147.92)"/>
        <path class="cls-23" d="M935.84,1016.29s49.58,41.39,68.92,37.56c15.12-3,38.33-10.95,38.33-10.95l4.64,11.87s-20.82,28.23-42.51,28.41c-33.91.29-59-14.68-59-14.68Z" transform="translate(-175.43 -147.92)"/>
        <path class="cls-30" d="M848.87,1452.9s1.44,23.22,5.93,23.55c.6,0,22.79,0,22.79,0l28.32-.17s-.18-6.82-8.46-8.26-22.14-7.27-27.16-18.21C865,1438.35,848.87,1452.9,848.87,1452.9Z" transform="translate(-175.43 -147.92)"/>
        <path class="cls-10" d="M847.24,1454.51s8.61,2.88,15.33,2.88a56.3,56.3,0,0,0,14.31-2s1.63-15.68,10.55-50.22c4.67-18.11,11.35-41.38,20.86-70.31,26.27-80,34.26-126.71,35-131.14,0-.24.05-.35.05-.35l-.08,0-80.78-35.47s10,110.19-2.75,152.48a176.83,176.83,0,0,0-4.62,20.26C847.05,1386.5,847.24,1454.51,847.24,1454.51Z" transform="translate(-175.43 -147.92)"/>
        <path class="cls-9" d="M887.43,1405.13c4.67-18.11,11.35-41.38,20.86-70.31,26.27-80,34.26-126.71,35-131.14l0-.39-80.78-35.47s10,110.19-2.75,152.48C857.93,1326.21,887.43,1405.13,887.43,1405.13Z" transform="translate(-175.43 -147.92)"/>
        <path class="cls-30" d="M912,1452.9s1.44,23.22,5.93,23.55c.6,0,22.79,0,22.79,0l28.32-.17s-.18-6.82-8.46-8.26-22.14-7.27-27.16-18.21C928.11,1438.35,912,1452.9,912,1452.9Z" transform="translate(-175.43 -147.92)"/>
        <path class="cls-10" d="M957.76,1170.42s1,71.4-11.31,159.06-8.16,124.88-8.16,124.88-8.49,2.75-11.92,3a54.16,54.16,0,0,1-17.67-2s-17.68-87.7-12.61-131.58-24.22-150.57-24.22-150.57Z" transform="translate(-175.43 -147.92)"/>
        <path class="cls-8" d="M900.48,1003.34l15.77,10.34,14.36-4.07c2.62-3.74,3.32-11,3.36-17.21a105.65,105.65,0,0,0-.57-11.47l-21.27-9.39-7.94-3.5c0,.12.62,6.52.71,7.45C906.38,992.07,900.48,1003.34,900.48,1003.34Z" transform="translate(-175.43 -147.92)"/>
        <path class="cls-20" d="M958.12,1190.27c-19.63,19-93.9,15.76-98.48-5.12s5-177.72,38.52-187.57c7-2,44.14,10,44.14,10a235.41,235.41,0,0,1,9.67,34.7c.74,3.78,2.91,43.86,4.53,81.36.76,17.54,1.4,34.51,1.73,46.94C958.52,1182.21,958.54,1189.85,958.12,1190.27Z" transform="translate(-175.43 -147.92)"/>
        <path class="cls-31" d="M906.49,975.79C910.8,983.08,926,989.47,934,992.4a105.65,105.65,0,0,0-.57-11.47l-21.27-9.39C907.43,971.48,904.56,972.53,906.49,975.79Z" transform="translate(-175.43 -147.92)"/>
        <path class="cls-8" d="M941.43,979.63s-34.28,10.7-40.61-10.75-15-34.51,6.6-42.25,28.31-.81,32.16,5.84S950.18,976.3,941.43,979.63Z" transform="translate(-175.43 -147.92)"/>
        <path class="cls-32" d="M938.23,930.4s-2.18,25-7.34,23.87-10.85-3.4-10.09,4.13-5,20.42-12.46,20.39c-16-.07-33.31-41-28.94-48.8C892,907.58,956.46,903.06,938.23,930.4Z" transform="translate(-175.43 -147.92)"/>
        <path class="cls-23" d="M933.19,998.12c-.44-.18-25.52-11.43-28.45-10.46s-6.58,9.92-6.58,9.92l44.15,10S938.83,1000.5,933.19,998.12Z" transform="translate(-175.43 -147.92)"/>
        <g>
          <path class="cls-33" d="M1089.29,1119.59,948.74,1251.92c-2.76,2.6-6.23,3.42-7.72,1.84l-4.75-5c-1.49-1.58-.45-5,2.3-7.6l140.56-132.33c2.75-2.59,6.22-3.42,7.72-1.83l4.74,5C1093.08,1113.58,1092.05,1117,1089.29,1119.59Z" transform="translate(-175.43 -147.92)"/>
          <path class="cls-17" d="M1010.42,1193.85l-61.68,58.07c-2.76,2.6-6.23,3.42-7.72,1.84l-4.75-5c-1.49-1.58-.45-5,2.3-7.6l61.68-58.07Z" transform="translate(-175.43 -147.92)"/>
          <path class="cls-33" d="M1057,1069.62a110.17,110.17,0,1,0,182.59-110.71c-.56-.56-1.14-1.12-1.73-1.66A110.17,110.17,0,0,0,1057,1069.62ZM1088.47,968a101.48,101.48,0,1,1,4.37,143.43A101.37,101.37,0,0,1,1088.47,968Z" transform="translate(-175.43 -147.92)"/>
          <g class="cls-34">
            <path class="cls-35" d="M1236.27,1107a101.47,101.47,0,1,1-4.37-143.42A101,101,0,0,1,1236.27,1107Z" transform="translate(-175.43 -147.92)"/>
          </g>
        </g>
        <path class="cls-23" d="M958.23,1170.56c-77.45-55.18-71-128.82-71-128.82,28.31,16,56.39,51.26,69.28,81.88C957.26,1141.16,957.9,1158.13,958.23,1170.56Z" transform="translate(-175.43 -147.92)"/>
        <g>
          <path class="cls-20" d="M1034.66,1145.43c5.46-1.26,9.13-5.39,9.9-6.11,0,0,2.32.16-.39,5.13-.22.42-.73,1.48-1.11,2.24a.48.48,0,0,0,.41.69c3.15.24,6.32-1,12.39.26.84.17,1.08,2.18,1.05,3a7.76,7.76,0,0,1-1.63,5.28c-1,1.3-3.71,2.68-9.79,5.13-2.31.93-8.94.23-15.14-1.9l-5-2.3,1.54-9.21,1.24.26C1030.15,1148.35,1032.6,1145.94,1034.66,1145.43Z" transform="translate(-175.43 -147.92)"/>
          <path class="cls-20" d="M911.25,1007.56s-69.58,13.25,20.48,114c14.4,16.12,92.22,37.1,92.22,37.1s7.89-6.71,3.92-12.15c0,0-53.59-38.91-65.37-45.09-5.31-2.79-20.59-62.11-29.23-76.39S911.25,1007.56,911.25,1007.56Z" transform="translate(-175.43 -147.92)"/>
        </g>
        <path class="cls-8" d="M1045.37,1045.15a35.21,35.21,0,0,0,2.72-6.64c.45-2.3,3.31-9,4.5-10.17.47-.47,2,.14,2.21,2.17a11.7,11.7,0,0,1-1.12,4.4c-1.24,3.11-1,7.34-1.47,8.74C1051.13,1047.16,1045.37,1045.15,1045.37,1045.15Z" transform="translate(-175.43 -147.92)"/>
      </g>
    </g>
    <path class="cls-36" d="M2987.54,1824.1l-2792.63-1a3.79,3.79,0,0,1-3.77-3.78v-3a3.79,3.79,0,0,1,3.78-3.78l2792.62,1a3.79,3.79,0,0,1,3.78,3.78v3A3.79,3.79,0,0,1,2987.54,1824.1Z" transform="translate(-175.43 -147.92)"/>
    <path class="cls-37" d="M944.61,588.92V537.2h-36.2a65.13,65.13,0,0,1-11.74,16.89,68.36,68.36,0,0,1-16.83,12.71,85.42,85.42,0,0,1-21.64,8,115.39,115.39,0,0,1-26.05,2.77,133.36,133.36,0,0,1-29.5-3,86.23,86.23,0,0,1-22.56-8.2,43.86,43.86,0,0,1-14.45-12.13,24.38,24.38,0,0,1-5.1-14.7q0-8.73,5.87-12.61T783.73,523H896.87a69,69,0,0,0,2.52-18.83,60.12,60.12,0,0,0-2.76-19.16,41.92,41.92,0,0,0-7.48-13.78,32.48,32.48,0,0,0-10.91-8.54,36.08,36.08,0,0,0-13.1-3.44v.29a19,19,0,0,1,5.43,3.11,19.71,19.71,0,0,1,4.32,4.85,23.91,23.91,0,0,1,2.81,6.26,25.59,25.59,0,0,1,1,7.32,25.64,25.64,0,0,1-8.73,19.7,29.46,29.46,0,0,1-9.65,5.58,37.65,37.65,0,0,1-24.45-.1,27.73,27.73,0,0,1-9.56-5.87,25.41,25.41,0,0,1-6.11-9.07,30.59,30.59,0,0,1-2.14-11.6,26.85,26.85,0,0,1,3.4-13.29,33.69,33.69,0,0,1,9.36-10.62A46.31,46.31,0,0,1,845,448.76a58.52,58.52,0,0,1,17.66-2.57,57,57,0,0,1,23,4.32,45.09,45.09,0,0,1,16.5,12,51.72,51.72,0,0,1,9.94,18.34,77,77,0,0,1,3.35,23.24A79,79,0,0,1,913.27,523h31.34V442h15.91v146.9ZM783.83,537.2q-4.56,0-5.92,1.17a4.32,4.32,0,0,0-1.36,3.49c0,2.27,1.22,4.64,3.64,7.13a34,34,0,0,0,10.72,6.84A85.92,85.92,0,0,0,808.52,561a125.56,125.56,0,0,0,24.21,2.09q21,0,35.42-6.74a52,52,0,0,0,22.41-19.17ZM864.17,479a20.39,20.39,0,0,0-1.21-7.28,16.77,16.77,0,0,0-3.25-5.43,15.25,15.25,0,0,0-4.86-3.55,18.18,18.18,0,0,0-6-1.6,18.85,18.85,0,0,0-6.36,2,17.85,17.85,0,0,0-4.9,3.88,17.24,17.24,0,0,0-3.15,5.29,17.94,17.94,0,0,0-1.12,6.36c0,4.78,1.36,8.62,4.08,11.49s6.4,4.32,11.06,4.32a17.62,17.62,0,0,0,6.26-1.07,14.47,14.47,0,0,0,5-3.1,13.88,13.88,0,0,0,3.29-4.9A16.93,16.93,0,0,0,864.17,479Z" transform="translate(-175.43 -147.92)"/>
    <g>
      <path class="cls-37" d="M1266.06,465.15a35.64,35.64,0,0,1-4,17.33,36.65,36.65,0,0,1-10.82,12.33,48.16,48.16,0,0,1-15.7,7.36,70.5,70.5,0,0,1-18.75,2.44,84.18,84.18,0,0,1-17.49-1.67,50.13,50.13,0,0,1-13.38-4.68,24.33,24.33,0,0,1-8.58-7.28,15.91,15.91,0,0,1-3-9.39,13.17,13.17,0,0,1,1.59-6.47,14,14,0,0,1,4.47-4.88,21.55,21.55,0,0,1,7-3.05,35.61,35.61,0,0,1,9-1.06c.93,0,1.88,0,2.85,0s1.93.07,2.85.12v10.82c-.81-.05-1.67-.09-2.56-.12s-1.73,0-2.48,0a17.36,17.36,0,0,0-7.08,1.18,4,4,0,0,0-2.6,3.95,6.37,6.37,0,0,0,2.07,4.59,16.71,16.71,0,0,0,6,3.54,45.77,45.77,0,0,0,9.52,2.28,89.47,89.47,0,0,0,12.69.81,51.64,51.64,0,0,0,13.66-1.75,34.45,34.45,0,0,0,11.23-5.2,25.57,25.57,0,0,0,7.61-8.67,25.16,25.16,0,0,0,2.8-12.12,17.26,17.26,0,0,0-2.28-9.27c-1.51-2.44-3.9-3.66-7.15-3.66a14.06,14.06,0,0,0-7.08,1.79,17.82,17.82,0,0,0-5.45,4.76,22,22,0,0,0-3.5,6.79,25.91,25.91,0,0,0-1.22,7.89V479h-13.34V450.51h-30.34a54.73,54.73,0,0,1-9.85,14.16,57.53,57.53,0,0,1-14.11,10.65,71.34,71.34,0,0,1-18.14,6.71,96.84,96.84,0,0,1-21.84,2.32,111.51,111.51,0,0,1-24.73-2.52,71.92,71.92,0,0,1-18.92-6.87,36.9,36.9,0,0,1-12.12-10.17,20.48,20.48,0,0,1-4.27-12.33q0-7.32,4.92-10.57t14.52-3.26h94.86a65.32,65.32,0,0,0,1.54-7.28,51.47,51.47,0,0,0,.57-7.85,52.59,52.59,0,0,0-2.32-16.47,35.18,35.18,0,0,0-6.26-11.75,26.92,26.92,0,0,0-9.15-7.2,30.14,30.14,0,0,0-11-2.89v.24a16,16,0,0,1,4.56,2.61,16.58,16.58,0,0,1,3.62,4.06,20.87,20.87,0,0,1,2.36,5.25,21.54,21.54,0,0,1,.85,6.14A21.46,21.46,0,0,1,1150.3,420a24.9,24.9,0,0,1-8,4.67,28,28,0,0,1-9.76,1.67A30.18,30.18,0,0,1,1122,424.6a22.72,22.72,0,0,1-8-4.92,21.67,21.67,0,0,1-5.09-7.61,25.75,25.75,0,0,1-1.79-9.72,23.14,23.14,0,0,1,2.77-11.14,27.59,27.59,0,0,1,7.73-8.91,38.52,38.52,0,0,1,11.71-5.94,48.71,48.71,0,0,1,14.81-2.15,47.75,47.75,0,0,1,19.28,3.62,37.75,37.75,0,0,1,13.83,10.08,43.43,43.43,0,0,1,8.34,15.38,64.58,64.58,0,0,1,2.8,19.48,66.14,66.14,0,0,1-1.79,15.86h26.28V370.71h13.34v80.78h.33a23.12,23.12,0,0,1,7.8-7.45,22.53,22.53,0,0,1,11.64-2.88,19.52,19.52,0,0,1,8.38,1.75,17.76,17.76,0,0,1,6.34,4.92,22.17,22.17,0,0,1,4,7.56A32.51,32.51,0,0,1,1266.06,465.15Zm-188-14.64c-2.55,0-4.2.33-5,1a3.65,3.65,0,0,0-1.14,2.93q0,2.85,3,6a28.51,28.51,0,0,0,9,5.73,71.46,71.46,0,0,0,14.77,4.35,104.84,104.84,0,0,0,20.29,1.75q17.58,0,29.7-5.65a43.61,43.61,0,0,0,18.79-16.07Zm67.36-48.81a17.07,17.07,0,0,0-1-6.1,14,14,0,0,0-2.72-4.55,12.69,12.69,0,0,0-4.07-3,15.05,15.05,0,0,0-5-1.35,15.45,15.45,0,0,0-5.29,1.71,14.3,14.3,0,0,0-4,3.26,14.12,14.12,0,0,0-2.56,4.47,15.63,15.63,0,0,0-.89,5.29,16.71,16.71,0,0,0,.81,5.29,11.71,11.71,0,0,0,2.44,4.23,10.9,10.9,0,0,0,4,2.76,15.11,15.11,0,0,0,10.49.08,11.74,11.74,0,0,0,4.11-2.6,12.59,12.59,0,0,0,2.76-4.11A13.7,13.7,0,0,0,1145.42,401.7Z" transform="translate(-175.43 -147.92)"/>
      <path class="cls-37" d="M1520.12,601.72q0,9.72-.09,16.5t-.17,12.33l-.34,29.59h-14l.51-28.74q.18-5.46.22-12.62t0-14.67q0-13.38-.34-24.26a170.25,170.25,0,0,0-1.71-19.92,81.64,81.64,0,0,0-4.18-16.54,57.36,57.36,0,0,0-7.67-14.07,49.69,49.69,0,0,0-8.32-8.66,48.3,48.3,0,0,0-10.78-6.61,63.37,63.37,0,0,0-13.44-4.22,81.89,81.89,0,0,0-16.16-1.49q-31,0-48,15.69a49.87,49.87,0,0,0-12,17.06,57.39,57.39,0,0,0-4.09,22.51,75.72,75.72,0,0,0,3.75,23.67,90.91,90.91,0,0,0,10.49,21.7,124.06,124.06,0,0,1,20-4.39,145.94,145.94,0,0,1,19.53-1.41,135,135,0,0,1,14.84.81,104,104,0,0,1,14.33,2.6,76.34,76.34,0,0,0,3.84-12.45,61.1,61.1,0,0,0,1.36-13,56.51,56.51,0,0,0-1.79-14.54,38.22,38.22,0,0,0-5.16-11.77,25.42,25.42,0,0,0-8.23-7.85,21,21,0,0,0-11.08-2.77v.34a17.86,17.86,0,0,1,5,2.6,19.72,19.72,0,0,1,4.18,4.18,20.82,20.82,0,0,1,2.85,5.46,19.3,19.3,0,0,1,1.07,6.44,25,25,0,0,1-1.92,9.94,22.64,22.64,0,0,1-5.33,7.67,24,24,0,0,1-8.06,5,28.61,28.61,0,0,1-10.1,1.75,29.34,29.34,0,0,1-10.84-1.92,24.69,24.69,0,0,1-8.31-5.29,24,24,0,0,1-5.37-7.93,25.15,25.15,0,0,1-1.92-9.85,24.8,24.8,0,0,1,3-12.11,29.17,29.17,0,0,1,8-9.3,38.34,38.34,0,0,1,11.64-6,44.94,44.94,0,0,1,13.86-2.13,43.52,43.52,0,0,1,18,3.5,36.44,36.44,0,0,1,13.09,9.72,42.28,42.28,0,0,1,8,14.88,62.85,62.85,0,0,1,2.73,19,79.6,79.6,0,0,1-1.58,16,78.4,78.4,0,0,1-4.65,14.92,44.33,44.33,0,0,1,8.1,4.82,32.7,32.7,0,0,1,6.31,6.23,27.06,27.06,0,0,1,4.1,7.59,27.45,27.45,0,0,1,1.45,9.08,22.37,22.37,0,0,1-2,9.59,20.71,20.71,0,0,1-5.75,7.38,27.3,27.3,0,0,1-9.17,4.78,40.91,40.91,0,0,1-12.24,1.7,82.37,82.37,0,0,1-17.4-1.87,90.68,90.68,0,0,1-17-5.46,73.65,73.65,0,0,1-16.07,5.46,81.84,81.84,0,0,1-17.53,1.87,63.53,63.53,0,0,1-15.35-1.66,35.91,35.91,0,0,1-11.21-4.69,20.73,20.73,0,0,1-6.91-7.29,19.28,19.28,0,0,1-2.35-9.47,20,20,0,0,1,1.49-7.63,25.32,25.32,0,0,1,4.18-6.78,38.6,38.6,0,0,1,6.27-5.84,56.47,56.47,0,0,1,7.85-4.91,101.31,101.31,0,0,1-11.81-24,81.28,81.28,0,0,1-4.23-26,69.56,69.56,0,0,1,5.51-28.18,61.2,61.2,0,0,1,15.3-21.37,69.76,69.76,0,0,1,25.55-14.24,105.83,105.83,0,0,1,31.93-4.6,102.07,102.07,0,0,1,19.83,1.79,81.69,81.69,0,0,1,16.55,5,61.79,61.79,0,0,1,13.3,7.67,56.39,56.39,0,0,1,10.11,9.94,60.89,60.89,0,0,1,9.08,15.82,93.87,93.87,0,0,1,5,18.46,165.93,165.93,0,0,1,2,21.75Q1520.12,587.73,1520.12,601.72ZM1416.67,647.6a112.22,112.22,0,0,1-15-10.83,109.76,109.76,0,0,1-12.83-13,40.85,40.85,0,0,0-5.33,3,24.77,24.77,0,0,0-4.22,3.5,15.35,15.35,0,0,0-2.78,3.92,10,10,0,0,0-1,4.35,8.91,8.91,0,0,0,1.62,5.33,12.47,12.47,0,0,0,4.48,3.75,23.27,23.27,0,0,0,6.82,2.18,51.75,51.75,0,0,0,8.66.68,66.36,66.36,0,0,0,10-.73A72.37,72.37,0,0,0,1416.67,647.6Zm40.17-30a88.43,88.43,0,0,0-12-1.92q-6.13-.55-11.94-.56-3.58,0-7.59.26t-8.1.72c-2.73.32-5.44.71-8.14,1.2s-5.28,1.06-7.72,1.75a106.38,106.38,0,0,0,13.56,13.21,86.16,86.16,0,0,0,15.6,10.15,69.39,69.39,0,0,0,14.89-10.87A76.94,76.94,0,0,0,1456.84,617.59Zm-15-55.52a16.68,16.68,0,0,0-1.07-6,15.72,15.72,0,0,0-2.94-4.86,15,15,0,0,0-9.89-4.9,14.09,14.09,0,0,0-4.61,1.83,15.46,15.46,0,0,0-3.75,3.29,14.52,14.52,0,0,0-2.52,4.56,17.76,17.76,0,0,0-.89,5.76,15.44,15.44,0,0,0,.94,5.54,12.16,12.16,0,0,0,2.68,4.26,11.59,11.59,0,0,0,4.14,2.73,14.23,14.23,0,0,0,5.29.94,12.48,12.48,0,0,0,9.21-3.41C1440.69,569.52,1441.83,566.27,1441.83,562.07Zm39.65,75a13.07,13.07,0,0,0-3.32-9,26.85,26.85,0,0,0-8.7-6.31,83.31,83.31,0,0,1-24.56,25.67,65.6,65.6,0,0,0,9.76,2.17,69.35,69.35,0,0,0,10.11.73q8.26,0,12.49-3.58A12.08,12.08,0,0,0,1481.48,637.11Z" transform="translate(-175.43 -147.92)"/>
      <path class="cls-37" d="M1802.14,459.16V573.77h-17.9V459.16h-55.67V573.77h-17.9V443.11h148v16.05Zm-33.07,53.27a12.73,12.73,0,0,1-12.77,12.77,11.86,11.86,0,0,1-4.86-1,13,13,0,0,1-4-2.72,12.93,12.93,0,0,1-2.72-14,12,12,0,0,1,2.72-4,14.43,14.43,0,0,1,4-2.73,11.43,11.43,0,0,1,4.86-1,12.15,12.15,0,0,1,5,1,13.86,13.86,0,0,1,4.1,2.73,12,12,0,0,1,2.72,4A12.67,12.67,0,0,1,1769.07,512.43Zm73.68,0A12.8,12.8,0,0,1,1825,524.21a12,12,0,0,1-4-2.72,13,13,0,0,1-2.67-4.1,12.95,12.95,0,0,1,0-9.93,12.27,12.27,0,0,1,2.67-4,13.08,13.08,0,0,1,4-2.73,12.37,12.37,0,0,1,9.93,0,13.86,13.86,0,0,1,4.1,2.73,12,12,0,0,1,2.72,4A12.67,12.67,0,0,1,1842.75,512.43Z" transform="translate(-175.43 -147.92)"/>
      <path class="cls-37" d="M2190.64,438.42a33.32,33.32,0,0,1-8.87-1,16.41,16.41,0,0,1-6.22-3.27,15.61,15.61,0,0,1-4.28-5.72,18.43,18.43,0,0,1-1.55-7.66,17.9,17.9,0,0,1,1.4-7.16,15.24,15.24,0,0,1,4.16-5.64,19.65,19.65,0,0,1,6.77-3.69,29.65,29.65,0,0,1,9.29-1.33H2212a78,78,0,0,0,14.08-1.12,26.21,26.21,0,0,0,10.16-3.93,17.09,17.09,0,0,0,6.1-7.51,30.15,30.15,0,0,0,2-11.86,25.55,25.55,0,0,0-2-10.35,20.46,20.46,0,0,0-5.68-7.58,25.75,25.75,0,0,0-9-4.71,40,40,0,0,0-11.83-1.63c-2,0-3.85.08-5.48.23s-3.18.37-4.63.62v.24a20.58,20.58,0,0,1,5.6,2.33,17,17,0,0,1,4.4,3.81,18,18,0,0,1,3.93,11.36,21.72,21.72,0,0,1-1.83,9.06,20,20,0,0,1-5,6.81,22.24,22.24,0,0,1-7.43,4.28,29.18,29.18,0,0,1-18.47,0,22.08,22.08,0,0,1-7.43-4.32,19.82,19.82,0,0,1-4.94-6.77,21.19,21.19,0,0,1-1.79-8.86,23.6,23.6,0,0,1,3.07-11.87,28,28,0,0,1,8.79-9.29,44.59,44.59,0,0,1,13.77-6,70.36,70.36,0,0,1,18.09-2.14,55.34,55.34,0,0,1,16.64,2.37,38.13,38.13,0,0,1,12.95,6.81,30.61,30.61,0,0,1,8.41,10.81,33.34,33.34,0,0,1,3,14.31q0,10.2-3.11,17.12a28.06,28.06,0,0,1-8.95,11.24,37.06,37.06,0,0,1-14.19,6.18,86.21,86.21,0,0,1-18.79,1.87h-20.85q-4.67,0-6.69,1.71a5.62,5.62,0,0,0-2,4.51,6.14,6.14,0,0,0,1.79,4.71c1.19,1.12,3.27,1.67,6.22,1.67h138.78v11.44Zm16.88-66.12a13.54,13.54,0,0,0-1-5.33,12.69,12.69,0,0,0-2.8-4.13,13.69,13.69,0,0,0-4.28-2.8,17.45,17.45,0,0,0-5.37-1.28,10.52,10.52,0,0,0-3.42,1.63,14,14,0,0,0-2.92,2.84,13.28,13.28,0,0,0-2,3.89,15.17,15.17,0,0,0-.74,4.79,11.43,11.43,0,0,0,3.11,8.32,11.21,11.21,0,0,0,8.41,3.19,11.64,11.64,0,0,0,4.43-.82,10.53,10.53,0,0,0,3.5-2.25,10.11,10.11,0,0,0,2.3-3.5A12.36,12.36,0,0,0,2207.52,372.3Z" transform="translate(-175.43 -147.92)"/>
      <path class="cls-37" d="M2378.34,625.94a29.39,29.39,0,0,1-7.13-.73,14.09,14.09,0,0,1-5-2.32,13.37,13.37,0,0,1-4.17-5,15.48,15.48,0,0,1-1.53-7,15.23,15.23,0,0,1,1.2-6.1,13,13,0,0,1,3.54-4.81,16.76,16.76,0,0,1,5.77-3.15,25.35,25.35,0,0,1,7.92-1.13h17.64a66.34,66.34,0,0,0,12-1,22.39,22.39,0,0,0,8.66-3.35,14.53,14.53,0,0,0,5.2-6.39,25.77,25.77,0,0,0,1.72-10.12,21.72,21.72,0,0,0-1.69-8.82,17.34,17.34,0,0,0-4.84-6.46,21.92,21.92,0,0,0-7.65-4,34.07,34.07,0,0,0-10.08-1.39c-1.73,0-3.28.06-4.68.2s-2.71.3-3.94.53v.19a18,18,0,0,1,4.77,2,14.51,14.51,0,0,1,3.75,3.25,15.28,15.28,0,0,1,3.35,9.68,18.4,18.4,0,0,1-1.56,7.73,17,17,0,0,1-4.28,5.8,18.92,18.92,0,0,1-6.33,3.65,24.87,24.87,0,0,1-15.75,0,18.93,18.93,0,0,1-6.33-3.68,16.91,16.91,0,0,1-4.21-5.77,18.09,18.09,0,0,1-1.53-7.55,20.22,20.22,0,0,1,2.62-10.12,23.9,23.9,0,0,1,7.5-7.92A38.13,38.13,0,0,1,2385,547a60.41,60.41,0,0,1,15.42-1.82,47.1,47.1,0,0,1,14.19,2,32.79,32.79,0,0,1,11,5.8,26.19,26.19,0,0,1,7.16,9.22,28.37,28.37,0,0,1,2.55,12.2q0,8.82-2.68,14.75a23.5,23.5,0,0,1-7.7,9.55,32.18,32.18,0,0,1-12.16,5.17,75.72,75.72,0,0,1-16.05,1.56H2379.2q-4,0-5.7,1.46a4.78,4.78,0,0,0-1.73,3.84,5.22,5.22,0,0,0,1.53,4c1,1,2.78,1.42,5.3,1.42h154.16v9.75Zm14.39-56.36a11.38,11.38,0,0,0-.87-4.54,10.84,10.84,0,0,0-2.38-3.52,11.53,11.53,0,0,0-3.65-2.38,14.58,14.58,0,0,0-4.57-1.1,9,9,0,0,0-2.92,1.39,11.88,11.88,0,0,0-2.49,2.42,11.35,11.35,0,0,0-1.72,3.32,12.83,12.83,0,0,0-.63,4.08,9.7,9.7,0,0,0,2.65,7.09,9.51,9.51,0,0,0,7.16,2.72,9.9,9.9,0,0,0,3.78-.7,9,9,0,0,0,3-1.92,8.41,8.41,0,0,0,2-3A10.55,10.55,0,0,0,2392.73,569.58Zm140-13.46V608.3h-10.14V556.12h-17.51V608.3H2495V583.7a58.43,58.43,0,0,0-1.16-11.87,24.64,24.64,0,0,0-4.48-9.94,18.18,18.18,0,0,0-6.3-5.24,19.31,19.31,0,0,0-9-2,23.39,23.39,0,0,0-8,1.39,19,19,0,0,0-6.79,4.25,20.6,20.6,0,0,0-4.71,7.12,26.39,26.39,0,0,0-1.76,10.05c0,.66,0,1.5.1,2.52s.19,2.08.37,3.18h.46a14.92,14.92,0,0,1,5.87-6.93,16.86,16.86,0,0,1,9.25-2.55,18.12,18.12,0,0,1,6.93,1.29,16,16,0,0,1,5.43,3.62,16.26,16.26,0,0,1,3.58,5.6,19.5,19.5,0,0,1,1.3,7.26,18.66,18.66,0,0,1-1.43,7.39,17.16,17.16,0,0,1-3.94,5.77,17.48,17.48,0,0,1-6,3.75,21.67,21.67,0,0,1-7.69,1.32,20,20,0,0,1-7.39-1.32,22.23,22.23,0,0,1-6-3.58,23.59,23.59,0,0,1-4.67-5.34,34.21,34.21,0,0,1-3.31-6.63,40.34,40.34,0,0,1-2-7.36,43.09,43.09,0,0,1-.67-7.53,37.35,37.35,0,0,1,2.36-13.62,29.79,29.79,0,0,1,6.53-10.31,28.58,28.58,0,0,1,9.84-6.53,32.65,32.65,0,0,1,12.37-2.29,26.49,26.49,0,0,1,12.76,2.88,21.46,21.46,0,0,1,8.52,8.46h.4v-9.95H2546v9.55Zm-56.89,35.54a11,11,0,0,0-.63-3.75,8.41,8.41,0,0,0-1.82-3,8.51,8.51,0,0,0-2.92-2,9.7,9.7,0,0,0-3.84-.73,10,10,0,0,0-3.85.73,10.28,10.28,0,0,0-3.15,2,9,9,0,0,0-2.12,3,9.61,9.61,0,0,0,0,7.49,9,9,0,0,0,2.09,3,9.92,9.92,0,0,0,3.11,2,10.25,10.25,0,0,0,3.92.73,9.63,9.63,0,0,0,3.54-.66,8.64,8.64,0,0,0,4.94-4.88A10.1,10.1,0,0,0,2475.87,591.66Z" transform="translate(-175.43 -147.92)"/>
    </g>
  </g>
</svg>
