<svg id="Layer_1" data-name="Layer 1" xmlns="http://www.w3.org/2000/svg" xmlns:xlink="http://www.w3.org/1999/xlink" viewBox="0 0 4134.11 2286.02"><defs><style>.cls-1,.cls-10,.cls-9{fill:none;}.cls-2{clip-path:url(#clip-path);}.cls-3{fill:#fff;}.cls-3,.cls-4,.cls-5,.cls-6,.cls-7{stroke:#231f20;}.cls-10,.cls-3,.cls-4,.cls-5,.cls-6,.cls-7,.cls-9{stroke-miterlimit:10;}.cls-4{fill:#46aafa;}.cls-5{fill:#1092fe;}.cls-6{fill:#99ace6;}.cls-7{fill:#99cffc;}.cls-8{fill:url(#radial-gradient);}.cls-9{stroke:#00aeef;}.cls-10{stroke:#fff;stroke-width:3px;}</style><clipPath id="clip-path" transform="translate(255.98 515.47)"><rect class="cls-1" width="1980" height="1280"/></clipPath><radialGradient id="radial-gradient" cx="-7.02" cy="1282.19" r="780.97" gradientUnits="userSpaceOnUse"><stop offset="0" stop-color="#446dff"/><stop offset="1" stop-color="#21bdff"/></radialGradient></defs><g class="cls-2"><rect class="cls-3" x="255.98" y="398.47" width="102.22" height="102.22"/><rect class="cls-4" x="547.09" y="398.47" width="102.22" height="102.22"/><rect class="cls-5" x="687.09" y="398.47" width="102.22" height="102.22"/><rect class="cls-6" x="827.09" y="398.47" width="102.22" height="102.22"/><rect class="cls-7" x="397.42" y="398.47" width="102.22" height="102.22"/><path class="cls-8" d="M-16.23,1.19C85.5,17-.48,501,262.6,665.34c109.42,68.34,160.93,7.52,303.71,80.43,169.11,86.36,334.87,293.24,325.4,535.42-8.34,213.16-152.75,461.63-335,487.13-353.59,49.47-915-731.3-796.6-1368.51C-199.67,183.53-82.48-9.13-16.23,1.19Z" transform="translate(255.98 515.47)"/><path class="cls-8" d="M-16.23,1.19C85.5,17-.48,501,262.6,665.34c109.42,68.34,160.93,7.52,303.71,80.43,169.11,86.36,334.87,293.24,325.4,535.42-8.34,213.16-152.75,461.63-335,487.13-353.59,49.47-915-731.3-796.6-1368.51C-199.67,183.53-82.48-9.13-16.23,1.19Z" transform="translate(255.98 515.47)"/><path class="cls-9" d="M3877.15-501.95l.48,19a60.12,60.12,0,0,1-9.35,18.21,60.28,60.28,0,0,1-15.81,14.57,69.26,69.26,0,0,1-16.87-16.37,69.41,69.41,0,0,1-8.85-16.41l.48-19.13,24.56-12.79Z" transform="translate(255.98 515.47)"/><path class="cls-10" d="M3843.11-483.26l6.32,5L3866.85-495" transform="translate(255.98 515.47)"/></g></svg>